<?xml version="1.0" standalone="no"?>
<!DOCTYPE svg PUBLIC "-//W3C//DTD SVG 20010904//EN"
 "http://www.w3.org/TR/2001/REC-SVG-20010904/DTD/svg10.dtd">
<svg version="1.0" xmlns="http://www.w3.org/2000/svg"
 width="800.000000pt" height="800.000000pt" viewBox="0 0 800.000000 800.000000"
 preserveAspectRatio="xMidYMid meet">
<metadata>
Created by potrace 1.11, written by Peter Selinger 2001-2013
</metadata>
<g transform="translate(0.000000,800.000000) scale(0.100000,-0.100000)"
fill="#000000" stroke="none">
<path d="M5842 7173 c-109 -221 -169 -310 -293 -433 -152 -151 -336 -288 -659
-490 -209 -130 -447 -289 -561 -375 -492 -369 -814 -764 -985 -1207 -19 -48
-34 -90 -34 -93 0 -4 33 23 73 60 132 120 315 230 532 318 61 25 283 104 495
177 636 218 883 323 1041 442 454 342 669 1040 517 1678 -11 47 -24 89 -28 94
-5 4 -49 -72 -98 -171z"/>
<path d="M1666 6803 c194 -191 246 -261 339 -456 82 -170 154 -388 254 -762
94 -355 144 -520 212 -703 173 -464 382 -798 675 -1082 123 -118 230 -207 240
-197 3 3 -10 36 -29 73 -50 100 -102 271 -126 414 -26 158 -38 340 -46 695
-12 585 -37 911 -80 1082 -32 124 -123 311 -205 423 -252 343 -690 595 -1158
665 -53 8 -131 15 -172 15 l-74 0 170 -167z"/>
<path d="M4525 5013 c-165 -7 -457 -51 -479 -73 -4 -4 18 -14 50 -20 87 -18
217 -66 326 -120 182 -91 288 -165 728 -506 480 -372 688 -514 860 -587 468
-198 1092 -85 1570 284 95 74 270 243 270 262 0 11 -37 8 -265 -19 -376 -44
-610 15 -1305 329 -545 247 -855 352 -1205 412 -169 29 -400 45 -550 38z"/>
<path d="M1209 4615 c-303 -48 -599 -177 -844 -370 -82 -65 -232 -211 -224
-219 2 -2 67 2 144 11 217 22 409 20 530 -7 224 -49 425 -128 830 -325 451
-220 704 -324 971 -401 420 -120 786 -144 1177 -78 53 10 97 21 97 26 0 4 -9
8 -19 8 -36 0 -206 61 -306 109 -190 93 -333 198 -840 616 -465 384 -698 537
-905 595 -181 50 -424 64 -611 35z"/>
<path d="M4676 4471 c33 -130 44 -226 44 -384 0 -170 -17 -319 -76 -686 -98
-606 -118 -775 -118 -996 0 -180 10 -245 59 -391 137 -408 514 -784 972 -970
101 -40 309 -101 318 -92 2 2 -49 78 -113 169 -130 183 -188 285 -227 404 -71
217 -104 423 -140 881 -30 378 -48 538 -81 734 -77 449 -212 809 -419 1120
-74 112 -221 298 -236 300 -3 0 5 -40 17 -89z"/>
<path d="M4501 3539 c-182 -197 -376 -313 -951 -570 -323 -144 -721 -342 -825
-411 -100 -66 -231 -190 -305 -290 -121 -161 -218 -395 -262 -626 -32 -169
-32 -476 0 -645 24 -124 90 -339 107 -344 6 -1 37 68 70 155 102 271 160 370
319 547 106 118 266 258 531 463 299 232 387 304 547 449 361 327 616 680 762
1055 47 119 99 298 88 297 -4 0 -40 -36 -81 -80z"/>
</g>
</svg>
